USFL
nRows=122
nColumns=2
inDegrees=yes
endheader
time	soleus_r	
2.57661	 51.335652	
2.64819	 51.280724	
2.71976	 51.381506	
2.79133	 51.441444	
2.8629	 51.469668	
2.93448	 51.173072	
3.00605	 51.249814	
3.07762	 51.133059	
3.14919	 50.911316	
3.22077	 51.143652	
3.29234	 51.033790	
3.36391	 50.700180	
3.43548	 50.724088	
3.50706	 50.649220	
3.57863	 50.727024	
3.6502	 50.561669	
3.72177	 50.684620	
3.79335	 50.965395	
3.86492	 51.073086	
3.93649	 51.008996	
4.00806	 51.047178	
4.07964	 50.999958	
4.15121	 51.490450	
4.22278	 51.155175	
4.29435	 51.276667	
4.36593	 51.070514	
4.4375	 50.267313	
4.50907	 50.462134	
4.58065	 50.530727	
4.65222	 50.927018	
4.72379	 47.465147	
4.79536	 48.028710	
4.86694	 48.427328	
4.93851	 46.479011	
5.01008	 45.114636	
5.08165	 44.702703	
5.15323	 44.556332	
5.2248	 43.919118	
5.29637	 44.275886	
5.36794	 40.032486	
5.43952	 40.144292	
5.51109	 39.937583	
5.58266	 39.584602	
5.65423	 39.325696	
5.72581	 38.284392	
5.79738	 38.559504	
5.86895	 38.430710	
5.94052	 37.107619	
6.0121	 36.599818	
6.08367	 36.529590	
6.15524	 37.087636	
6.22681	 37.484260	
6.29839	 37.902787	
6.36996	 36.960663	
6.44153	 36.307722	
6.5131	 35.036993	
6.58468	 35.473213	
6.65625	 35.407287	
6.72782	 37.175686	
6.7994	 35.361486	
6.87097	 35.268795	
6.94254	 36.090634	
7.01411	 34.595049	
7.08569	 35.591042	
7.15726	 35.752169	
7.22883	 35.102651	
7.3004	 36.849502	
7.37198	 36.427410	
7.44355	 36.341628	
7.51512	 36.703264	
7.58669	 35.060903	
7.65827	 36.257823	
7.72984	 36.211904	
7.80141	 39.247234	
7.87298	 39.214763	
7.94456	 39.291702	
8.01613	 39.223490	
8.0877	 38.583008	
8.15927	 38.543239	
8.23085	 38.632767	
8.30242	 37.968651	
8.37399	 37.225535	
8.44556	 37.405603	
8.51714	 37.789706	
8.58871	 37.708144	
8.66028	 37.533752	
8.73185	 38.476155	
8.80343	 38.582853	
8.875	 36.605674	
8.94657	 36.465560	
9.01815	 36.202875	
9.08972	 35.133802	
9.16129	 33.577003	
9.23286	 33.577357	
9.30444	 34.346764	
9.37601	 37.109441	
9.44758	 37.225885	
9.51915	 38.173565	
9.59073	 37.478343	
9.6623	 33.039799	
9.73387	 34.580946	
9.80544	 36.466450	
9.87702	 36.428637	
9.94859	 32.546645	
10.0202	 30.857024	
10.0917	 29.025779	
10.1633	 34.646629	
10.2349	 37.868806	
10.3065	 38.553065	
10.378	 37.983095	
10.4496	 35.720319	
10.5212	 33.944466	
10.5927	 33.519585	
10.6643	 33.539400	
10.7359	 33.897456	
10.8075	 34.163373	
10.879	 33.914486	
10.9506	 34.399112	
11.0222	 34.585459	
11.0937	 34.972182	
11.1653	 35.158810	
11.2369	 35.032383	
